<svg width="1550" height="743" viewBox="0 0 1550 743" fill="none" xmlns="http://www.w3.org/2000/svg">
<g clip-path="url(#clip0_684_44)">
<rect width="1550" height="743" fill="white"/>
<g filter="url(#filter0_f_684_44)">
<circle cx="909.5" cy="134.5" r="65.5" fill="url(#paint0_linear_684_44)"/>
</g>
<g filter="url(#filter1_f_684_44)">
<circle cx="1162" cy="674" r="187" fill="url(#paint1_linear_684_44)"/>
</g>
<g filter="url(#filter2_f_684_44)">
<path fill-rule="evenodd" clip-rule="evenodd" d="M-20 512.207L47 493.385C114 474.563 248 436.919 382 465.152C516 493.385 650 587.494 784 643.96C918 700.425 1052 719.247 1186 700.425C1320 681.603 1454 625.138 1521 596.905L1588 568.672V851H1521C1454 851 1320 851 1186 851C1052 851 918 851 784 851C650 851 516 851 382 851C248 851 114 851 47 851H-20V512.207Z" fill="url(#paint2_linear_684_44)"/>
<path fill-rule="evenodd" clip-rule="evenodd" d="M-20 512.207L47 493.385C114 474.563 248 436.919 382 465.152C516 493.385 650 587.494 784 643.96C918 700.425 1052 719.247 1186 700.425C1320 681.603 1454 625.138 1521 596.905L1588 568.672V851H1521C1454 851 1320 851 1186 851C1052 851 918 851 784 851C650 851 516 851 382 851C248 851 114 851 47 851H-20V512.207Z" stroke="black"/>
</g>
<g filter="url(#filter3_f_684_44)">
<circle cx="242" cy="438" r="114" fill="url(#paint3_linear_684_44)"/>
</g>
<path d="M426.314 324H416.428L431.491 280.364H443.381L458.423 324H448.537L437.607 290.335H437.266L426.314 324ZM425.696 306.848H449.048V314.05H425.696V306.848ZM472.901 280.364V324H463.675V280.364H472.901ZM528.746 273.78H536.726V304.74H528.746V273.78ZM534.506 285.84H544.106V292.38H534.506V285.84ZM512.786 276.96H521.306C521.306 291.72 512.066 301.74 495.506 306.06L492.386 299.76C506.006 296.34 512.786 289.26 512.786 280.92V276.96ZM495.026 276.96H517.586V283.26H495.026V276.96ZM500.666 306.96H536.726V328.74H500.666V306.96ZM528.866 313.26H508.526V322.44H528.866V313.26ZM578.301 287.22H588.861V293.7H578.301V287.22ZM586.701 273.78H594.681V306.78H586.701V273.78ZM575.841 307.98C587.601 307.98 594.861 312 594.861 318.72C594.861 325.5 587.601 329.4 575.841 329.4C564.081 329.4 556.821 325.5 556.821 318.72C556.821 312 564.081 307.98 575.841 307.98ZM575.841 314.04C568.641 314.04 564.801 315.54 564.801 318.72C564.801 321.84 568.641 323.34 575.841 323.34C583.101 323.34 586.941 321.84 586.941 318.72C586.941 315.54 583.101 314.04 575.841 314.04ZM561.021 279.36H567.501V282.84C567.501 293.46 562.581 303.18 551.961 306.78L547.881 300.48C557.061 297.36 561.021 289.98 561.021 282.84V279.36ZM562.701 279.36H569.121V282.84C569.121 289.38 572.901 296.16 581.661 299.1L577.761 305.4C567.441 301.98 562.701 292.74 562.701 282.84V279.36ZM550.041 277.14H579.921V283.5H550.041V277.14ZM603.377 302.22H653.657V308.52H603.377V302.22ZM625.157 305.58H633.197V317.28H625.157V305.58ZM609.197 322.02H648.137V328.38H609.197V322.02ZM609.197 313.08H617.117V324.72H609.197V313.08ZM609.797 275.52H617.657V281.22H639.317V275.52H647.237V298.38H609.797V275.52ZM617.657 287.22V292.14H639.317V287.22H617.657ZM686.952 284.1H698.232V290.58H686.952V284.1ZM671.292 276.66H677.832V281.88C677.832 292.86 672.972 302.4 662.412 306.06L658.212 299.76C667.512 296.7 671.292 289.38 671.292 281.88V276.66ZM672.912 276.66H679.332V282.36C679.332 289.26 683.052 296.04 691.752 298.86L687.612 305.1C677.532 301.62 672.912 292.62 672.912 282.36V276.66ZM667.212 309.36H705.072V329.34H697.092V315.66H667.212V309.36ZM697.092 273.78H705.072V306.84H697.092V273.78ZM744.634 280.02H752.134C752.134 295.86 748.294 308.82 731.854 318.42L727.414 312.9C741.034 304.98 744.634 295.2 744.634 281.4V280.02ZM730.534 280.02H747.094V286.38H730.534V280.02ZM744.754 292.68V298.62L728.674 300.3L727.714 293.58L744.754 292.68ZM747.574 294.78H758.974V301.08H747.574V294.78ZM767.914 273.78H775.534V329.34H767.914V273.78ZM756.274 274.98H763.714V326.88H756.274V274.98ZM798.089 277.62C806.369 277.62 812.429 285.3 812.429 297.42C812.429 309.66 806.369 317.34 798.089 317.34C789.749 317.34 783.749 309.66 783.749 297.42C783.749 285.3 789.749 277.62 798.089 277.62ZM798.089 284.88C794.069 284.88 791.369 289.26 791.369 297.42C791.369 305.7 794.069 310.14 798.089 310.14C802.169 310.14 804.809 305.7 804.809 297.42C804.809 289.26 802.169 284.88 798.089 284.88ZM821.549 273.72H829.469V329.46H821.549V273.72ZM810.089 293.76H824.909V300.18H810.089V293.76ZM867.591 275.4C876.051 275.4 882.411 280.68 882.411 288.12C882.411 295.5 876.051 300.78 867.591 300.78C859.131 300.78 852.771 295.5 852.771 288.12C852.771 280.68 859.131 275.4 867.591 275.4ZM867.591 281.88C863.511 281.88 860.451 284.16 860.451 288.12C860.451 292.08 863.511 294.36 867.591 294.36C871.671 294.36 874.671 292.08 874.671 288.12C874.671 284.16 871.671 281.88 867.591 281.88ZM890.091 273.78H898.131V301.56H890.091V273.78ZM861.051 303.84H898.131V319.08H868.971V325.8H861.171V313.32H890.211V310.02H861.051V303.84ZM861.171 322.56H899.511V328.74H861.171V322.56ZM945.407 273.78H953.447V329.34H945.407V273.78ZM929.027 279.54H936.947C936.947 296.52 931.187 310.44 911.447 319.98L907.307 313.62C923.267 305.94 929.027 295.86 929.027 280.98V279.54ZM910.247 279.54H932.807V285.84H910.247V279.54ZM1004.23 291.12H1018.87V297.54H1004.23V291.12ZM989.109 278.04H995.589V286.08C995.589 300.06 990.849 312.96 980.409 318.18L975.429 311.76C984.909 307.38 989.109 296.64 989.109 286.08V278.04ZM990.789 278.04H997.149V286.08C997.149 296.64 1001.17 306.78 1010.35 310.86L1005.61 317.22C995.169 312.18 990.789 299.94 990.789 286.08V278.04ZM1014.91 273.72H1022.83V329.46H1014.91V273.72ZM1069.5 273.72H1077.54V329.46H1069.5V273.72ZM1034.16 278.16H1042.08V291.66H1053.54V278.16H1061.46V316.5H1034.16V278.16ZM1042.08 297.84V310.08H1053.54V297.84H1042.08ZM1107.24 276.96H1114.2V280.98C1114.2 293.04 1105.62 303.72 1091.22 306.54L1087.8 299.94C1100.34 297.78 1107.24 288.96 1107.24 280.98V276.96ZM1108.86 276.96H1115.76V280.98C1115.76 289.14 1122.6 297.78 1135.2 299.94L1131.78 306.54C1117.38 303.72 1108.86 293.22 1108.86 280.98V276.96ZM1086.66 316.08H1136.94V322.56H1086.66V316.08Z" fill="#606060"/>
<circle cx="804.267" cy="393.733" r="52.7327" fill="#5FD068"/>
<path d="M795.594 468.321L809.471 429.464C824.736 415.702 854.988 381.936 856.653 398.589C858.318 415.241 838.266 438.139 809.471 474.566L795.594 468.321Z" fill="#5FD068"/>
<path d="M817.797 445.079C823.695 423.223 812.385 376.735 778.595 370.837M773.738 385.408L798.37 380.522L802.186 358.348M821.614 362.511L808.777 393.37L771.656 401.367M840.347 373.613L816.145 410.734L773.738 418.713" stroke="#F4FBFA" stroke-width="4.8791" stroke-linecap="round"/>
<path d="M556.214 404.273H535.185C535.036 402.533 534.638 400.954 533.991 399.537C533.37 398.12 532.5 396.902 531.381 395.883C530.288 394.839 528.958 394.044 527.392 393.497C525.826 392.925 524.048 392.639 522.06 392.639C518.58 392.639 515.634 393.484 513.223 395.175C510.836 396.865 509.022 399.289 507.779 402.446C506.561 405.603 505.952 409.393 505.952 413.818C505.952 418.491 506.573 422.407 507.816 425.564C509.084 428.696 510.911 431.057 513.297 432.648C515.684 434.214 518.555 434.997 521.911 434.997C523.825 434.997 525.54 434.761 527.056 434.289C528.572 433.792 529.89 433.083 531.009 432.163C532.127 431.244 533.034 430.137 533.73 428.845C534.451 427.527 534.936 426.048 535.185 424.408L556.214 424.557C555.966 427.788 555.059 431.082 553.493 434.438C551.926 437.769 549.702 440.851 546.818 443.685C543.96 446.494 540.417 448.756 536.191 450.471C531.966 452.186 527.056 453.044 521.463 453.044C514.453 453.044 508.164 451.54 502.596 448.532C497.053 445.525 492.665 441.1 489.434 435.258C486.227 429.417 484.624 422.27 484.624 413.818C484.624 405.317 486.264 398.158 489.545 392.341C492.827 386.499 497.251 382.087 502.82 379.104C508.388 376.096 514.602 374.592 521.463 374.592C526.286 374.592 530.723 375.251 534.775 376.569C538.826 377.886 542.381 379.812 545.439 382.348C548.496 384.859 550.957 387.953 552.821 391.632C554.686 395.311 555.817 399.525 556.214 404.273ZM639.597 413.818C639.597 422.32 637.944 429.491 634.638 435.333C631.332 441.15 626.87 445.562 621.252 448.57C615.634 451.553 609.37 453.044 602.46 453.044C595.499 453.044 589.21 451.54 583.592 448.532C577.999 445.5 573.55 441.075 570.244 435.258C566.962 429.417 565.322 422.27 565.322 413.818C565.322 405.317 566.962 398.158 570.244 392.341C573.55 386.499 577.999 382.087 583.592 379.104C589.21 376.096 595.499 374.592 602.46 374.592C609.37 374.592 615.634 376.096 621.252 379.104C626.87 382.087 631.332 386.499 634.638 392.341C637.944 398.158 639.597 405.317 639.597 413.818ZM618.269 413.818C618.269 409.244 617.66 405.391 616.442 402.259C615.249 399.102 613.472 396.716 611.11 395.1C608.774 393.46 605.89 392.639 602.46 392.639C599.029 392.639 596.133 393.46 593.772 395.1C591.435 396.716 589.658 399.102 588.44 402.259C587.247 405.391 586.65 409.244 586.65 413.818C586.65 418.392 587.247 422.257 588.44 425.414C589.658 428.547 591.435 430.933 593.772 432.574C596.133 434.189 599.029 434.997 602.46 434.997C605.89 434.997 608.774 434.189 611.11 432.574C613.472 430.933 615.249 428.547 616.442 425.414C617.66 422.257 618.269 418.392 618.269 413.818ZM649.189 375.636H674.992L692.741 418.889H693.635L711.384 375.636H737.187V452H716.903V407.852H716.306L699.303 451.403H687.073L670.07 407.554H669.474V452H649.189V375.636ZM872.52 375.636H898.322L916.071 418.889H916.966L934.714 375.636H960.517V452H940.233V407.852H939.636L922.633 451.403H910.403L893.4 407.554H892.804V452H872.52V375.636ZM990.178 452H967.806L993.012 375.636H1021.35L1046.56 452H1024.18L1007.48 396.666H1006.88L990.178 452ZM986.002 421.872H1028.06V437.384H986.002V421.872Z" fill="#5FD068"/>
</g>
<defs>
<filter id="filter0_f_684_44" x="824" y="49" width="171" height="171" filterUnits="userSpaceOnUse" color-interpolation-filters="sRGB">
<feFlood flood-opacity="0" result="BackgroundImageFix"/>
<feBlend mode="normal" in="SourceGraphic" in2="BackgroundImageFix" result="shape"/>
<feGaussianBlur stdDeviation="10" result="effect1_foregroundBlur_684_44"/>
</filter>
<filter id="filter1_f_684_44" x="945" y="457" width="434" height="434" filterUnits="userSpaceOnUse" color-interpolation-filters="sRGB">
<feFlood flood-opacity="0" result="BackgroundImageFix"/>
<feBlend mode="normal" in="SourceGraphic" in2="BackgroundImageFix" result="shape"/>
<feGaussianBlur stdDeviation="15" result="effect1_foregroundBlur_684_44"/>
</filter>
<filter id="filter2_f_684_44" x="-40" y="435" width="1648" height="436" filterUnits="userSpaceOnUse" color-interpolation-filters="sRGB">
<feFlood flood-opacity="0" result="BackgroundImageFix"/>
<feBlend mode="normal" in="SourceGraphic" in2="BackgroundImageFix" result="shape"/>
<feGaussianBlur stdDeviation="10" result="effect1_foregroundBlur_684_44"/>
</filter>
<filter id="filter3_f_684_44" x="108" y="304" width="268" height="268" filterUnits="userSpaceOnUse" color-interpolation-filters="sRGB">
<feFlood flood-opacity="0" result="BackgroundImageFix"/>
<feBlend mode="normal" in="SourceGraphic" in2="BackgroundImageFix" result="shape"/>
<feGaussianBlur stdDeviation="10" result="effect1_foregroundBlur_684_44"/>
</filter>
<linearGradient id="paint0_linear_684_44" x1="844" y1="69" x2="982.678" y2="210.797" gradientUnits="userSpaceOnUse">
<stop stop-color="#EFFFAD"/>
<stop offset="0.521" stop-color="#FFFBA4"/>
<stop offset="1" stop-color="#C7E489"/>
</linearGradient>
<linearGradient id="paint1_linear_684_44" x1="975" y1="487" x2="1370.92" y2="891.824" gradientUnits="userSpaceOnUse">
<stop stop-color="#BCFFD5"/>
<stop offset="0.551" stop-color="#A9E3D5"/>
<stop offset="0.996" stop-color="#A0E1EF"/>
</linearGradient>
<linearGradient id="paint2_linear_684_44" x1="-20" y1="653" x2="1588" y2="653" gradientUnits="userSpaceOnUse">
<stop stop-color="#DCFFB4"/>
<stop offset="0.58" stop-color="#AAE4D6"/>
<stop offset="1" stop-color="#54ADB9"/>
</linearGradient>
<linearGradient id="paint3_linear_684_44" x1="128" y1="324" x2="369.363" y2="570.791" gradientUnits="userSpaceOnUse">
<stop stop-color="#E1FFAD"/>
<stop offset="0.436" stop-color="#D3FFA6"/>
<stop offset="0.911" stop-color="#74F971"/>
</linearGradient>
<clipPath id="clip0_684_44">
<rect width="1550" height="743" fill="white"/>
</clipPath>
</defs>
</svg>
