<svg width="1272" height="853" viewBox="0 0 1272 853" fill="none" xmlns="http://www.w3.org/2000/svg">
<g clip-path="url(#clip0_676_2)">
<rect width="1272" height="853" fill="white"/>
<path d="M289.314 346H279.428L294.491 302.364H306.381L321.423 346H311.537L300.607 312.335H300.266L289.314 346ZM288.696 328.848H312.048V336.05H288.696V328.848ZM335.901 302.364V346H326.675V302.364H335.901ZM391.746 295.78H399.726V326.74H391.746V295.78ZM397.506 307.84H407.106V314.38H397.506V307.84ZM375.786 298.96H384.306C384.306 313.72 375.066 323.74 358.506 328.06L355.386 321.76C369.006 318.34 375.786 311.26 375.786 302.92V298.96ZM358.026 298.96H380.586V305.26H358.026V298.96ZM363.666 328.96H399.726V350.74H363.666V328.96ZM391.866 335.26H371.526V344.44H391.866V335.26ZM424.081 298.66H430.741V303.64C430.741 314.8 425.761 324.58 414.841 328.24L410.701 321.82C420.181 318.76 424.081 311.26 424.081 303.64V298.66ZM425.761 298.66H432.181V303.28C432.181 310.66 435.781 317.5 444.601 320.32L440.461 326.56C430.201 323.02 425.761 314.08 425.761 303.28V298.66ZM449.701 295.78H457.681V328.3H449.701V295.78ZM438.841 329.74C450.601 329.74 457.861 333.76 457.861 340.54C457.861 347.38 450.601 351.34 438.841 351.34C427.081 351.34 419.821 347.38 419.821 340.54C419.821 333.76 427.081 329.74 438.841 329.74ZM438.841 335.92C431.641 335.92 427.801 337.42 427.801 340.54C427.801 343.66 431.641 345.22 438.841 345.22C446.101 345.22 449.941 343.66 449.941 340.54C449.941 337.42 446.101 335.92 438.841 335.92ZM439.561 305.86H450.841V312.34H439.561V305.86ZM466.377 324.22H516.657V330.52H466.377V324.22ZM488.157 327.58H496.197V339.28H488.157V327.58ZM472.197 344.02H511.137V350.38H472.197V344.02ZM472.197 335.08H480.117V346.72H472.197V335.08ZM472.797 297.52H480.657V303.22H502.317V297.52H510.237V320.38H472.797V297.52ZM480.657 309.22V314.14H502.317V309.22H480.657ZM549.952 306.1H561.232V312.58H549.952V306.1ZM534.292 298.66H540.832V303.88C540.832 314.86 535.972 324.4 525.412 328.06L521.212 321.76C530.512 318.7 534.292 311.38 534.292 303.88V298.66ZM535.912 298.66H542.332V304.36C542.332 311.26 546.052 318.04 554.752 320.86L550.612 327.1C540.532 323.62 535.912 314.62 535.912 304.36V298.66ZM530.212 331.36H568.072V351.34H560.092V337.66H530.212V331.36ZM560.092 295.78H568.072V328.84H560.092V295.78ZM607.634 302.02H615.134C615.134 317.86 611.294 330.82 594.854 340.42L590.414 334.9C604.034 326.98 607.634 317.2 607.634 303.4V302.02ZM593.534 302.02H610.094V308.38H593.534V302.02ZM607.754 314.68V320.62L591.674 322.3L590.714 315.58L607.754 314.68ZM610.574 316.78H621.974V323.08H610.574V316.78ZM630.914 295.78H638.534V351.34H630.914V295.78ZM619.274 296.98H626.714V348.88H619.274V296.98ZM661.089 299.62C669.369 299.62 675.429 307.3 675.429 319.42C675.429 331.66 669.369 339.34 661.089 339.34C652.749 339.34 646.749 331.66 646.749 319.42C646.749 307.3 652.749 299.62 661.089 299.62ZM661.089 306.88C657.069 306.88 654.369 311.26 654.369 319.42C654.369 327.7 657.069 332.14 661.089 332.14C665.169 332.14 667.809 327.7 667.809 319.42C667.809 311.26 665.169 306.88 661.089 306.88ZM684.549 295.72H692.469V351.46H684.549V295.72ZM673.089 315.76H687.909V322.18H673.089V315.76ZM730.591 297.4C739.051 297.4 745.411 302.68 745.411 310.12C745.411 317.5 739.051 322.78 730.591 322.78C722.131 322.78 715.771 317.5 715.771 310.12C715.771 302.68 722.131 297.4 730.591 297.4ZM730.591 303.88C726.511 303.88 723.451 306.16 723.451 310.12C723.451 314.08 726.511 316.36 730.591 316.36C734.671 316.36 737.671 314.08 737.671 310.12C737.671 306.16 734.671 303.88 730.591 303.88ZM753.091 295.78H761.131V323.56H753.091V295.78ZM724.051 325.84H761.131V341.08H731.971V347.8H724.171V335.32H753.211V332.02H724.051V325.84ZM724.171 344.56H762.511V350.74H724.171V344.56ZM808.407 295.78H816.447V351.34H808.407V295.78ZM792.027 301.54H799.947C799.947 318.52 794.187 332.44 774.447 341.98L770.307 335.62C786.267 327.94 792.027 317.86 792.027 302.98V301.54ZM773.247 301.54H795.807V307.84H773.247V301.54ZM867.229 313.12H881.869V319.54H867.229V313.12ZM852.109 300.04H858.589V308.08C858.589 322.06 853.849 334.96 843.409 340.18L838.429 333.76C847.909 329.38 852.109 318.64 852.109 308.08V300.04ZM853.789 300.04H860.149V308.08C860.149 318.64 864.169 328.78 873.349 332.86L868.609 339.22C858.169 334.18 853.789 321.94 853.789 308.08V300.04ZM877.909 295.72H885.829V351.46H877.909V295.72ZM932.504 295.72H940.544V351.46H932.504V295.72ZM897.164 300.16H905.084V313.66H916.544V300.16H924.464V338.5H897.164V300.16ZM905.084 319.84V332.08H916.544V319.84H905.084ZM970.239 298.96H977.199V302.98C977.199 315.04 968.619 325.72 954.219 328.54L950.799 321.94C963.339 319.78 970.239 310.96 970.239 302.98V298.96ZM971.859 298.96H978.759V302.98C978.759 311.14 985.599 319.78 998.199 321.94L994.779 328.54C980.379 325.72 971.859 315.22 971.859 302.98V298.96ZM949.659 338.08H999.939V344.56H949.659V338.08Z" fill="#606060"/>
<circle cx="674.704" cy="437.351" r="46.3514" fill="#5FD068"/>
<path d="M667.081 502.914L679.278 468.759C692.696 456.663 719.287 426.983 720.751 441.621C722.214 456.258 704.589 476.385 679.278 508.403L667.081 502.914Z" fill="#5FD068"/>
<path d="M686.597 482.484C691.781 463.273 681.839 422.411 652.138 417.227M647.869 430.034L669.52 425.739L672.874 406.249M689.951 409.908L678.668 437.033L646.039 444.062M706.418 419.666L685.144 452.295L647.869 459.309" stroke="#F4FBFA" stroke-width="4.8791" stroke-linecap="round"/>
<path d="M459.403 441.544H441.081C440.951 440.028 440.604 438.653 440.041 437.418C439.5 436.184 438.742 435.123 437.767 434.235C436.814 433.325 435.655 432.632 434.291 432.156C432.926 431.657 431.378 431.408 429.645 431.408C426.613 431.408 424.047 432.145 421.946 433.617C419.867 435.09 418.286 437.202 417.203 439.952C416.141 442.703 415.611 446.006 415.611 449.861C415.611 453.933 416.152 457.344 417.235 460.094C418.34 462.823 419.932 464.881 422.011 466.267C424.09 467.631 426.591 468.313 429.515 468.313C431.183 468.313 432.677 468.108 433.998 467.696C435.32 467.263 436.467 466.646 437.442 465.844C438.417 465.043 439.207 464.079 439.814 462.953C440.442 461.805 440.864 460.517 441.081 459.087L459.403 459.217C459.187 462.033 458.396 464.902 457.032 467.826C455.667 470.728 453.729 473.414 451.216 475.883C448.726 478.33 445.64 480.301 441.958 481.795C438.276 483.29 433.998 484.037 429.125 484.037C423.018 484.037 417.538 482.727 412.687 480.106C407.857 477.486 404.035 473.63 401.219 468.541C398.425 463.451 397.028 457.225 397.028 449.861C397.028 442.454 398.458 436.216 401.317 431.148C404.175 426.059 408.031 422.215 412.882 419.616C417.733 416.995 423.148 415.685 429.125 415.685C433.327 415.685 437.193 416.259 440.723 417.406C444.253 418.554 447.351 420.233 450.014 422.442C452.678 424.629 454.823 427.326 456.447 430.531C458.071 433.737 459.057 437.408 459.403 441.544ZM532.052 449.861C532.052 457.268 530.612 463.516 527.731 468.606C524.851 473.674 520.963 477.518 516.068 480.139C511.174 482.738 505.716 484.037 499.695 484.037C493.631 484.037 488.151 482.727 483.257 480.106C478.384 477.464 474.507 473.609 471.626 468.541C468.768 463.451 467.338 457.225 467.338 449.861C467.338 442.454 468.768 436.216 471.626 431.148C474.507 426.059 478.384 422.215 483.257 419.616C488.151 416.995 493.631 415.685 499.695 415.685C505.716 415.685 511.174 416.995 516.068 419.616C520.963 422.215 524.851 426.059 527.731 431.148C530.612 436.216 532.052 442.454 532.052 449.861ZM513.469 449.861C513.469 445.876 512.939 442.519 511.878 439.79C510.838 437.039 509.289 434.96 507.232 433.552C505.196 432.123 502.684 431.408 499.695 431.408C496.706 431.408 494.183 432.123 492.126 433.552C490.09 434.96 488.541 437.039 487.48 439.79C486.44 442.519 485.921 445.876 485.921 449.861C485.921 453.846 486.44 457.214 487.48 459.964C488.541 462.693 490.09 464.772 492.126 466.202C494.183 467.61 496.706 468.313 499.695 468.313C502.684 468.313 505.196 467.61 507.232 466.202C509.289 464.772 510.838 462.693 511.878 459.964C512.939 457.214 513.469 453.846 513.469 449.861ZM540.409 416.594H562.89L578.354 454.279H579.134L594.597 416.594H617.078V483.127H599.405V444.663H598.886L584.072 482.608H573.416L558.602 444.403H558.082V483.127H540.409V416.594ZM734.989 416.594H757.47L772.934 454.279H773.714L789.177 416.594H811.658V483.127H793.986V444.663H793.466L778.652 482.608H767.996L753.182 444.403H752.662V483.127H734.989V416.594ZM837.502 483.127H818.01L839.971 416.594H864.661L886.622 483.127H867.13L852.576 434.917H852.056L837.502 483.127ZM833.863 456.878H870.508V470.393H833.863V456.878Z" fill="#5FD068"/>
<g filter="url(#filter0_f_676_2)">
<circle cx="909.5" cy="156.5" r="65.5" fill="url(#paint0_linear_676_2)"/>
</g>
<g filter="url(#filter1_f_676_2)">
<circle cx="975.5" cy="766.5" r="208.5" fill="url(#paint1_linear_676_2)"/>
</g>
<g filter="url(#filter2_f_676_2)">
<path fill-rule="evenodd" clip-rule="evenodd" d="M-20 623.207L36.9583 604.385C93.9167 585.563 207.833 547.919 321.75 576.152C435.667 604.385 549.583 698.494 663.5 754.96C777.417 811.425 891.333 830.247 1005.25 811.425C1119.17 792.603 1233.08 736.138 1290.04 707.905L1347 679.672V962H1290.04C1233.08 962 1119.17 962 1005.25 962C891.333 962 777.417 962 663.5 962C549.583 962 435.667 962 321.75 962C207.833 962 93.9167 962 36.9583 962H-20V623.207Z" fill="url(#paint2_linear_676_2)"/>
<path fill-rule="evenodd" clip-rule="evenodd" d="M-20 623.207L36.9583 604.385C93.9167 585.563 207.833 547.919 321.75 576.152C435.667 604.385 549.583 698.494 663.5 754.96C777.417 811.425 891.333 830.247 1005.25 811.425C1119.17 792.603 1233.08 736.138 1290.04 707.905L1347 679.672V962H1290.04C1233.08 962 1119.17 962 1005.25 962C891.333 962 777.417 962 663.5 962C549.583 962 435.667 962 321.75 962C207.833 962 93.9167 962 36.9583 962H-20V623.207Z" stroke="black"/>
</g>
<g filter="url(#filter3_f_676_2)">
<circle cx="211" cy="518" r="94" fill="url(#paint3_linear_676_2)"/>
</g>
</g>
<defs>
<filter id="filter0_f_676_2" x="824" y="71" width="171" height="171" filterUnits="userSpaceOnUse" color-interpolation-filters="sRGB">
<feFlood flood-opacity="0" result="BackgroundImageFix"/>
<feBlend mode="normal" in="SourceGraphic" in2="BackgroundImageFix" result="shape"/>
<feGaussianBlur stdDeviation="10" result="effect1_foregroundBlur_676_2"/>
</filter>
<filter id="filter1_f_676_2" x="737" y="528" width="477" height="477" filterUnits="userSpaceOnUse" color-interpolation-filters="sRGB">
<feFlood flood-opacity="0" result="BackgroundImageFix"/>
<feBlend mode="normal" in="SourceGraphic" in2="BackgroundImageFix" result="shape"/>
<feGaussianBlur stdDeviation="15" result="effect1_foregroundBlur_676_2"/>
</filter>
<filter id="filter2_f_676_2" x="-40" y="546" width="1407" height="436" filterUnits="userSpaceOnUse" color-interpolation-filters="sRGB">
<feFlood flood-opacity="0" result="BackgroundImageFix"/>
<feBlend mode="normal" in="SourceGraphic" in2="BackgroundImageFix" result="shape"/>
<feGaussianBlur stdDeviation="10" result="effect1_foregroundBlur_676_2"/>
</filter>
<filter id="filter3_f_676_2" x="97" y="404" width="228" height="228" filterUnits="userSpaceOnUse" color-interpolation-filters="sRGB">
<feFlood flood-opacity="0" result="BackgroundImageFix"/>
<feBlend mode="normal" in="SourceGraphic" in2="BackgroundImageFix" result="shape"/>
<feGaussianBlur stdDeviation="10" result="effect1_foregroundBlur_676_2"/>
</filter>
<linearGradient id="paint0_linear_676_2" x1="844" y1="91" x2="982.678" y2="232.797" gradientUnits="userSpaceOnUse">
<stop stop-color="#EFFFAD"/>
<stop offset="0.521" stop-color="#FFFBA4"/>
<stop offset="1" stop-color="#C7E489"/>
</linearGradient>
<linearGradient id="paint1_linear_676_2" x1="767" y1="558" x2="1208.44" y2="1009.37" gradientUnits="userSpaceOnUse">
<stop stop-color="#BCFFD5"/>
<stop offset="0.551" stop-color="#A9E3D5"/>
<stop offset="0.996" stop-color="#A0E1EF"/>
</linearGradient>
<linearGradient id="paint2_linear_676_2" x1="-20" y1="764" x2="1347" y2="764" gradientUnits="userSpaceOnUse">
<stop stop-color="#DCFFB4"/>
<stop offset="0.58" stop-color="#AAE4D6"/>
<stop offset="1" stop-color="#54ADB9"/>
</linearGradient>
<linearGradient id="paint3_linear_676_2" x1="117" y1="424" x2="316.018" y2="627.495" gradientUnits="userSpaceOnUse">
<stop stop-color="#E1FFAD"/>
<stop offset="0.436" stop-color="#D3FFA6"/>
<stop offset="0.911" stop-color="#74F971"/>
</linearGradient>
<clipPath id="clip0_676_2">
<rect width="1272" height="853" fill="white"/>
</clipPath>
</defs>
</svg>
