<svg width="1272" height="709" viewBox="0 0 1272 709" fill="none" xmlns="http://www.w3.org/2000/svg">
<g clip-path="url(#clip0_676_40)">
<rect width="1272" height="709" fill="white"/>
<path d="M289.314 256H279.428L294.491 212.364H306.381L321.423 256H311.537L300.607 222.335H300.266L289.314 256ZM288.696 238.848H312.048V246.05H288.696V238.848ZM335.901 212.364V256H326.675V212.364H335.901ZM391.746 205.78H399.726V236.74H391.746V205.78ZM397.506 217.84H407.106V224.38H397.506V217.84ZM375.786 208.96H384.306C384.306 223.72 375.066 233.74 358.506 238.06L355.386 231.76C369.006 228.34 375.786 221.26 375.786 212.92V208.96ZM358.026 208.96H380.586V215.26H358.026V208.96ZM363.666 238.96H399.726V260.74H363.666V238.96ZM391.866 245.26H371.526V254.44H391.866V245.26ZM441.301 219.22H451.861V225.7H441.301V219.22ZM449.701 205.78H457.681V238.78H449.701V205.78ZM438.841 239.98C450.601 239.98 457.861 244 457.861 250.72C457.861 257.5 450.601 261.4 438.841 261.4C427.081 261.4 419.821 257.5 419.821 250.72C419.821 244 427.081 239.98 438.841 239.98ZM438.841 246.04C431.641 246.04 427.801 247.54 427.801 250.72C427.801 253.84 431.641 255.34 438.841 255.34C446.101 255.34 449.941 253.84 449.941 250.72C449.941 247.54 446.101 246.04 438.841 246.04ZM424.021 211.36H430.501V214.84C430.501 225.46 425.581 235.18 414.961 238.78L410.881 232.48C420.061 229.36 424.021 221.98 424.021 214.84V211.36ZM425.701 211.36H432.121V214.84C432.121 221.38 435.901 228.16 444.661 231.1L440.761 237.4C430.441 233.98 425.701 224.74 425.701 214.84V211.36ZM413.041 209.14H442.921V215.5H413.041V209.14ZM466.377 234.22H516.657V240.52H466.377V234.22ZM488.157 237.58H496.197V249.28H488.157V237.58ZM472.197 254.02H511.137V260.38H472.197V254.02ZM472.197 245.08H480.117V256.72H472.197V245.08ZM472.797 207.52H480.657V213.22H502.317V207.52H510.237V230.38H472.797V207.52ZM480.657 219.22V224.14H502.317V219.22H480.657ZM549.952 216.1H561.232V222.58H549.952V216.1ZM534.292 208.66H540.832V213.88C540.832 224.86 535.972 234.4 525.412 238.06L521.212 231.76C530.512 228.7 534.292 221.38 534.292 213.88V208.66ZM535.912 208.66H542.332V214.36C542.332 221.26 546.052 228.04 554.752 230.86L550.612 237.1C540.532 233.62 535.912 224.62 535.912 214.36V208.66ZM530.212 241.36H568.072V261.34H560.092V247.66H530.212V241.36ZM560.092 205.78H568.072V238.84H560.092V205.78ZM607.634 212.02H615.134C615.134 227.86 611.294 240.82 594.854 250.42L590.414 244.9C604.034 236.98 607.634 227.2 607.634 213.4V212.02ZM593.534 212.02H610.094V218.38H593.534V212.02ZM607.754 224.68V230.62L591.674 232.3L590.714 225.58L607.754 224.68ZM610.574 226.78H621.974V233.08H610.574V226.78ZM630.914 205.78H638.534V261.34H630.914V205.78ZM619.274 206.98H626.714V258.88H619.274V206.98ZM661.089 209.62C669.369 209.62 675.429 217.3 675.429 229.42C675.429 241.66 669.369 249.34 661.089 249.34C652.749 249.34 646.749 241.66 646.749 229.42C646.749 217.3 652.749 209.62 661.089 209.62ZM661.089 216.88C657.069 216.88 654.369 221.26 654.369 229.42C654.369 237.7 657.069 242.14 661.089 242.14C665.169 242.14 667.809 237.7 667.809 229.42C667.809 221.26 665.169 216.88 661.089 216.88ZM684.549 205.72H692.469V261.46H684.549V205.72ZM673.089 225.76H687.909V232.18H673.089V225.76ZM730.591 207.4C739.051 207.4 745.411 212.68 745.411 220.12C745.411 227.5 739.051 232.78 730.591 232.78C722.131 232.78 715.771 227.5 715.771 220.12C715.771 212.68 722.131 207.4 730.591 207.4ZM730.591 213.88C726.511 213.88 723.451 216.16 723.451 220.12C723.451 224.08 726.511 226.36 730.591 226.36C734.671 226.36 737.671 224.08 737.671 220.12C737.671 216.16 734.671 213.88 730.591 213.88ZM753.091 205.78H761.131V233.56H753.091V205.78ZM724.051 235.84H761.131V251.08H731.971V257.8H724.171V245.32H753.211V242.02H724.051V235.84ZM724.171 254.56H762.511V260.74H724.171V254.56ZM808.407 205.78H816.447V261.34H808.407V205.78ZM792.027 211.54H799.947C799.947 228.52 794.187 242.44 774.447 251.98L770.307 245.62C786.267 237.94 792.027 227.86 792.027 212.98V211.54ZM773.247 211.54H795.807V217.84H773.247V211.54ZM867.229 223.12H881.869V229.54H867.229V223.12ZM852.109 210.04H858.589V218.08C858.589 232.06 853.849 244.96 843.409 250.18L838.429 243.76C847.909 239.38 852.109 228.64 852.109 218.08V210.04ZM853.789 210.04H860.149V218.08C860.149 228.64 864.169 238.78 873.349 242.86L868.609 249.22C858.169 244.18 853.789 231.94 853.789 218.08V210.04ZM877.909 205.72H885.829V261.46H877.909V205.72ZM932.504 205.72H940.544V261.46H932.504V205.72ZM897.164 210.16H905.084V223.66H916.544V210.16H924.464V248.5H897.164V210.16ZM905.084 229.84V242.08H916.544V229.84H905.084ZM970.239 208.96H977.199V212.98C977.199 225.04 968.619 235.72 954.219 238.54L950.799 231.94C963.339 229.78 970.239 220.96 970.239 212.98V208.96ZM971.859 208.96H978.759V212.98C978.759 221.14 985.599 229.78 998.199 231.94L994.779 238.54C980.379 235.72 971.859 225.22 971.859 212.98V208.96ZM949.659 248.08H999.939V254.56H949.659V248.08Z" fill="#606060"/>
<circle cx="674.704" cy="347.351" r="46.3514" fill="#5FD068"/>
<path d="M667.081 412.914L679.278 378.759C692.696 366.663 719.287 336.983 720.751 351.621C722.214 366.258 704.589 386.385 679.278 418.403L667.081 412.914Z" fill="#5FD068"/>
<path d="M686.597 392.485C691.781 373.273 681.839 332.411 652.138 327.227M647.869 340.034L669.52 335.739L672.874 316.249M689.951 319.908L678.668 347.033L646.039 354.062M706.418 329.666L685.144 362.295L647.869 369.309" stroke="#F4FBFA" stroke-width="4.8791" stroke-linecap="round"/>
<path d="M459.403 351.544H441.081C440.951 350.028 440.604 348.653 440.041 347.418C439.5 346.184 438.742 345.123 437.767 344.235C436.814 343.325 435.655 342.632 434.291 342.156C432.926 341.657 431.378 341.408 429.645 341.408C426.613 341.408 424.047 342.145 421.946 343.617C419.867 345.09 418.286 347.202 417.203 349.952C416.141 352.703 415.611 356.006 415.611 359.861C415.611 363.933 416.152 367.344 417.235 370.094C418.34 372.823 419.932 374.881 422.011 376.267C424.09 377.631 426.591 378.313 429.515 378.313C431.183 378.313 432.677 378.108 433.998 377.696C435.32 377.263 436.467 376.646 437.442 375.844C438.417 375.043 439.207 374.079 439.814 372.953C440.442 371.805 440.864 370.517 441.081 369.087L459.403 369.217C459.187 372.033 458.396 374.902 457.032 377.826C455.667 380.728 453.729 383.414 451.216 385.883C448.726 388.33 445.64 390.301 441.958 391.795C438.276 393.29 433.998 394.037 429.125 394.037C423.018 394.037 417.538 392.727 412.687 390.106C407.857 387.486 404.035 383.63 401.219 378.541C398.425 373.451 397.028 367.225 397.028 359.861C397.028 352.454 398.458 346.216 401.317 341.148C404.175 336.059 408.031 332.215 412.882 329.616C417.733 326.995 423.148 325.685 429.125 325.685C433.327 325.685 437.193 326.259 440.723 327.406C444.253 328.554 447.351 330.233 450.014 332.442C452.678 334.629 454.823 337.326 456.447 340.531C458.071 343.737 459.057 347.408 459.403 351.544ZM532.052 359.861C532.052 367.268 530.612 373.516 527.731 378.606C524.851 383.674 520.963 387.518 516.068 390.139C511.174 392.738 505.716 394.037 499.695 394.037C493.631 394.037 488.151 392.727 483.257 390.106C478.384 387.464 474.507 383.609 471.626 378.541C468.768 373.451 467.338 367.225 467.338 359.861C467.338 352.454 468.768 346.216 471.626 341.148C474.507 336.059 478.384 332.215 483.257 329.616C488.151 326.995 493.631 325.685 499.695 325.685C505.716 325.685 511.174 326.995 516.068 329.616C520.963 332.215 524.851 336.059 527.731 341.148C530.612 346.216 532.052 352.454 532.052 359.861ZM513.469 359.861C513.469 355.876 512.939 352.519 511.878 349.79C510.838 347.039 509.289 344.96 507.232 343.552C505.196 342.123 502.684 341.408 499.695 341.408C496.706 341.408 494.183 342.123 492.126 343.552C490.09 344.96 488.541 347.039 487.48 349.79C486.44 352.519 485.921 355.876 485.921 359.861C485.921 363.846 486.44 367.214 487.48 369.964C488.541 372.693 490.09 374.772 492.126 376.202C494.183 377.61 496.706 378.313 499.695 378.313C502.684 378.313 505.196 377.61 507.232 376.202C509.289 374.772 510.838 372.693 511.878 369.964C512.939 367.214 513.469 363.846 513.469 359.861ZM540.409 326.594H562.89L578.354 364.279H579.134L594.597 326.594H617.078V393.127H599.405V354.663H598.886L584.072 392.608H573.416L558.602 354.403H558.082V393.127H540.409V326.594ZM734.989 326.594H757.47L772.934 364.279H773.714L789.177 326.594H811.658V393.127H793.986V354.663H793.466L778.652 392.608H767.996L753.182 354.403H752.662V393.127H734.989V326.594ZM837.502 393.127H818.01L839.971 326.594H864.661L886.622 393.127H867.13L852.576 344.917H852.056L837.502 393.127ZM833.863 366.878H870.508V380.393H833.863V366.878Z" fill="#5FD068"/>
<g filter="url(#filter0_f_676_40)">
<circle cx="884.5" cy="110.5" r="62.5" fill="url(#paint0_linear_676_40)"/>
</g>
<g filter="url(#filter1_f_676_40)">
<circle cx="975.5" cy="643.5" r="208.5" fill="url(#paint1_linear_676_40)"/>
</g>
<g filter="url(#filter2_f_676_40)">
<path fill-rule="evenodd" clip-rule="evenodd" d="M-20 500.207L36.9583 481.385C93.9167 462.563 207.833 424.919 321.75 453.152C435.667 481.385 549.583 575.494 663.5 631.96C777.417 688.425 891.333 707.247 1005.25 688.425C1119.17 669.603 1233.08 613.138 1290.04 584.905L1347 556.672V839H1290.04C1233.08 839 1119.17 839 1005.25 839C891.333 839 777.417 839 663.5 839C549.583 839 435.667 839 321.75 839C207.833 839 93.9167 839 36.9583 839H-20V500.207Z" fill="url(#paint2_linear_676_40)"/>
<path fill-rule="evenodd" clip-rule="evenodd" d="M-20 500.207L36.9583 481.385C93.9167 462.563 207.833 424.919 321.75 453.152C435.667 481.385 549.583 575.494 663.5 631.96C777.417 688.425 891.333 707.247 1005.25 688.425C1119.17 669.603 1233.08 613.138 1290.04 584.905L1347 556.672V839H1290.04C1233.08 839 1119.17 839 1005.25 839C891.333 839 777.417 839 663.5 839C549.583 839 435.667 839 321.75 839C207.833 839 93.9167 839 36.9583 839H-20V500.207Z" stroke="black"/>
</g>
<g filter="url(#filter3_f_676_40)">
<circle cx="211" cy="395" r="94" fill="url(#paint3_linear_676_40)"/>
</g>
</g>
<defs>
<filter id="filter0_f_676_40" x="802" y="28" width="165" height="165" filterUnits="userSpaceOnUse" color-interpolation-filters="sRGB">
<feFlood flood-opacity="0" result="BackgroundImageFix"/>
<feBlend mode="normal" in="SourceGraphic" in2="BackgroundImageFix" result="shape"/>
<feGaussianBlur stdDeviation="10" result="effect1_foregroundBlur_676_40"/>
</filter>
<filter id="filter1_f_676_40" x="737" y="405" width="477" height="477" filterUnits="userSpaceOnUse" color-interpolation-filters="sRGB">
<feFlood flood-opacity="0" result="BackgroundImageFix"/>
<feBlend mode="normal" in="SourceGraphic" in2="BackgroundImageFix" result="shape"/>
<feGaussianBlur stdDeviation="15" result="effect1_foregroundBlur_676_40"/>
</filter>
<filter id="filter2_f_676_40" x="-40" y="423" width="1407" height="436" filterUnits="userSpaceOnUse" color-interpolation-filters="sRGB">
<feFlood flood-opacity="0" result="BackgroundImageFix"/>
<feBlend mode="normal" in="SourceGraphic" in2="BackgroundImageFix" result="shape"/>
<feGaussianBlur stdDeviation="10" result="effect1_foregroundBlur_676_40"/>
</filter>
<filter id="filter3_f_676_40" x="97" y="281" width="228" height="228" filterUnits="userSpaceOnUse" color-interpolation-filters="sRGB">
<feFlood flood-opacity="0" result="BackgroundImageFix"/>
<feBlend mode="normal" in="SourceGraphic" in2="BackgroundImageFix" result="shape"/>
<feGaussianBlur stdDeviation="10" result="effect1_foregroundBlur_676_40"/>
</filter>
<linearGradient id="paint0_linear_676_40" x1="822" y1="48" x2="954.326" y2="183.302" gradientUnits="userSpaceOnUse">
<stop stop-color="#EFFFAD"/>
<stop offset="0.521" stop-color="#FFFBA4"/>
<stop offset="1" stop-color="#C7E489"/>
</linearGradient>
<linearGradient id="paint1_linear_676_40" x1="767" y1="435" x2="1208.44" y2="886.368" gradientUnits="userSpaceOnUse">
<stop stop-color="#BCFFD5"/>
<stop offset="0.551" stop-color="#A9E3D5"/>
<stop offset="0.996" stop-color="#A0E1EF"/>
</linearGradient>
<linearGradient id="paint2_linear_676_40" x1="-20" y1="641" x2="1347" y2="641" gradientUnits="userSpaceOnUse">
<stop stop-color="#DCFFB4"/>
<stop offset="0.58" stop-color="#AAE4D6"/>
<stop offset="1" stop-color="#54ADB9"/>
</linearGradient>
<linearGradient id="paint3_linear_676_40" x1="117" y1="301" x2="316.018" y2="504.495" gradientUnits="userSpaceOnUse">
<stop stop-color="#E1FFAD"/>
<stop offset="0.436" stop-color="#D3FFA6"/>
<stop offset="0.911" stop-color="#74F971"/>
</linearGradient>
<clipPath id="clip0_676_40">
<rect width="1272" height="709" fill="white"/>
</clipPath>
</defs>
</svg>
