<svg width="1550" height="837" viewBox="0 0 1550 837" fill="none" xmlns="http://www.w3.org/2000/svg">
<g clip-path="url(#clip0_682_18)">
<rect width="1550" height="837" fill="white"/>
<g filter="url(#filter0_f_682_18)">
<circle cx="909.5" cy="156.5" r="65.5" fill="url(#paint0_linear_682_18)"/>
</g>
<g filter="url(#filter1_f_682_18)">
<circle cx="1140.5" cy="763.5" r="208.5" fill="url(#paint1_linear_682_18)"/>
</g>
<g filter="url(#filter2_f_682_18)">
<path fill-rule="evenodd" clip-rule="evenodd" d="M-20 623.207L47 604.385C114 585.563 248 547.919 382 576.152C516 604.385 650 698.494 784 754.96C918 811.425 1052 830.247 1186 811.425C1320 792.603 1454 736.138 1521 707.905L1588 679.672V962H1521C1454 962 1320 962 1186 962C1052 962 918 962 784 962C650 962 516 962 382 962C248 962 114 962 47 962H-20V623.207Z" fill="url(#paint2_linear_682_18)"/>
<path fill-rule="evenodd" clip-rule="evenodd" d="M-20 623.207L47 604.385C114 585.563 248 547.919 382 576.152C516 604.385 650 698.494 784 754.96C918 811.425 1052 830.247 1186 811.425C1320 792.603 1454 736.138 1521 707.905L1588 679.672V962H1521C1454 962 1320 962 1186 962C1052 962 918 962 784 962C650 962 516 962 382 962C248 962 114 962 47 962H-20V623.207Z" stroke="black"/>
</g>
<g filter="url(#filter3_f_682_18)">
<circle cx="236.5" cy="543.5" r="119.5" fill="url(#paint3_linear_682_18)"/>
</g>
<path d="M441.314 363H431.428L446.491 319.364H458.381L473.423 363H463.537L452.607 329.335H452.266L441.314 363ZM440.696 345.848H464.048V353.05H440.696V345.848ZM487.901 319.364V363H478.675V319.364H487.901ZM543.746 312.78H551.726V343.74H543.746V312.78ZM549.506 324.84H559.106V331.38H549.506V324.84ZM527.786 315.96H536.306C536.306 330.72 527.066 340.74 510.506 345.06L507.386 338.76C521.006 335.34 527.786 328.26 527.786 319.92V315.96ZM510.026 315.96H532.586V322.26H510.026V315.96ZM515.666 345.96H551.726V367.74H515.666V345.96ZM543.866 352.26H523.526V361.44H543.866V352.26ZM576.081 315.66H582.741V320.64C582.741 331.8 577.761 341.58 566.841 345.24L562.701 338.82C572.181 335.76 576.081 328.26 576.081 320.64V315.66ZM577.761 315.66H584.181V320.28C584.181 327.66 587.781 334.5 596.601 337.32L592.461 343.56C582.201 340.02 577.761 331.08 577.761 320.28V315.66ZM601.701 312.78H609.681V345.3H601.701V312.78ZM590.841 346.74C602.601 346.74 609.861 350.76 609.861 357.54C609.861 364.38 602.601 368.34 590.841 368.34C579.081 368.34 571.821 364.38 571.821 357.54C571.821 350.76 579.081 346.74 590.841 346.74ZM590.841 352.92C583.641 352.92 579.801 354.42 579.801 357.54C579.801 360.66 583.641 362.22 590.841 362.22C598.101 362.22 601.941 360.66 601.941 357.54C601.941 354.42 598.101 352.92 590.841 352.92ZM591.561 322.86H602.841V329.34H591.561V322.86ZM618.377 341.22H668.657V347.52H618.377V341.22ZM640.157 344.58H648.197V356.28H640.157V344.58ZM624.197 361.02H663.137V367.38H624.197V361.02ZM624.197 352.08H632.117V363.72H624.197V352.08ZM624.797 314.52H632.657V320.22H654.317V314.52H662.237V337.38H624.797V314.52ZM632.657 326.22V331.14H654.317V326.22H632.657ZM701.952 323.1H713.232V329.58H701.952V323.1ZM686.292 315.66H692.832V320.88C692.832 331.86 687.972 341.4 677.412 345.06L673.212 338.76C682.512 335.7 686.292 328.38 686.292 320.88V315.66ZM687.912 315.66H694.332V321.36C694.332 328.26 698.052 335.04 706.752 337.86L702.612 344.1C692.532 340.62 687.912 331.62 687.912 321.36V315.66ZM682.212 348.36H720.072V368.34H712.092V354.66H682.212V348.36ZM712.092 312.78H720.072V345.84H712.092V312.78ZM759.634 319.02H767.134C767.134 334.86 763.294 347.82 746.854 357.42L742.414 351.9C756.034 343.98 759.634 334.2 759.634 320.4V319.02ZM745.534 319.02H762.094V325.38H745.534V319.02ZM759.754 331.68V337.62L743.674 339.3L742.714 332.58L759.754 331.68ZM762.574 333.78H773.974V340.08H762.574V333.78ZM782.914 312.78H790.534V368.34H782.914V312.78ZM771.274 313.98H778.714V365.88H771.274V313.98ZM813.089 316.62C821.369 316.62 827.429 324.3 827.429 336.42C827.429 348.66 821.369 356.34 813.089 356.34C804.749 356.34 798.749 348.66 798.749 336.42C798.749 324.3 804.749 316.62 813.089 316.62ZM813.089 323.88C809.069 323.88 806.369 328.26 806.369 336.42C806.369 344.7 809.069 349.14 813.089 349.14C817.169 349.14 819.809 344.7 819.809 336.42C819.809 328.26 817.169 323.88 813.089 323.88ZM836.549 312.72H844.469V368.46H836.549V312.72ZM825.089 332.76H839.909V339.18H825.089V332.76ZM882.591 314.4C891.051 314.4 897.411 319.68 897.411 327.12C897.411 334.5 891.051 339.78 882.591 339.78C874.131 339.78 867.771 334.5 867.771 327.12C867.771 319.68 874.131 314.4 882.591 314.4ZM882.591 320.88C878.511 320.88 875.451 323.16 875.451 327.12C875.451 331.08 878.511 333.36 882.591 333.36C886.671 333.36 889.671 331.08 889.671 327.12C889.671 323.16 886.671 320.88 882.591 320.88ZM905.091 312.78H913.131V340.56H905.091V312.78ZM876.051 342.84H913.131V358.08H883.971V364.8H876.171V352.32H905.211V349.02H876.051V342.84ZM876.171 361.56H914.511V367.74H876.171V361.56ZM960.407 312.78H968.447V368.34H960.407V312.78ZM944.027 318.54H951.947C951.947 335.52 946.187 349.44 926.447 358.98L922.307 352.62C938.267 344.94 944.027 334.86 944.027 319.98V318.54ZM925.247 318.54H947.807V324.84H925.247V318.54ZM1019.23 330.12H1033.87V336.54H1019.23V330.12ZM1004.11 317.04H1010.59V325.08C1010.59 339.06 1005.85 351.96 995.409 357.18L990.429 350.76C999.909 346.38 1004.11 335.64 1004.11 325.08V317.04ZM1005.79 317.04H1012.15V325.08C1012.15 335.64 1016.17 345.78 1025.35 349.86L1020.61 356.22C1010.17 351.18 1005.79 338.94 1005.79 325.08V317.04ZM1029.91 312.72H1037.83V368.46H1029.91V312.72ZM1084.5 312.72H1092.54V368.46H1084.5V312.72ZM1049.16 317.16H1057.08V330.66H1068.54V317.16H1076.46V355.5H1049.16V317.16ZM1057.08 336.84V349.08H1068.54V336.84H1057.08ZM1122.24 315.96H1129.2V319.98C1129.2 332.04 1120.62 342.72 1106.22 345.54L1102.8 338.94C1115.34 336.78 1122.24 327.96 1122.24 319.98V315.96ZM1123.86 315.96H1130.76V319.98C1130.76 328.14 1137.6 336.78 1150.2 338.94L1146.78 345.54C1132.38 342.72 1123.86 332.22 1123.86 319.98V315.96ZM1101.66 355.08H1151.94V361.56H1101.66V355.08Z" fill="#606060"/>
<circle cx="819.267" cy="432.733" r="52.7327" fill="#5FD068"/>
<path d="M810.594 507.321L824.471 468.464C839.736 454.702 869.988 420.936 871.653 437.589C873.318 454.241 853.266 477.139 824.471 513.566L810.594 507.321Z" fill="#5FD068"/>
<path d="M832.797 484.079C838.695 462.223 827.385 415.735 793.595 409.837M788.738 424.408L813.37 419.521L817.186 397.348M836.614 401.511L823.777 432.37L786.656 440.366M855.347 412.612L831.145 449.733L788.738 457.713" stroke="#F4FBFA" stroke-width="4.8791" stroke-linecap="round"/>
<path d="M571.214 443.273H550.185C550.036 441.533 549.638 439.954 548.991 438.537C548.37 437.12 547.5 435.902 546.381 434.883C545.288 433.839 543.958 433.044 542.392 432.497C540.826 431.925 539.048 431.639 537.06 431.639C533.58 431.639 530.634 432.484 528.223 434.175C525.836 435.865 524.022 438.289 522.779 441.446C521.561 444.603 520.952 448.393 520.952 452.818C520.952 457.491 521.573 461.407 522.816 464.564C524.084 467.696 525.911 470.057 528.297 471.648C530.684 473.214 533.555 473.997 536.911 473.997C538.825 473.997 540.54 473.761 542.056 473.289C543.572 472.792 544.89 472.083 546.009 471.163C547.127 470.244 548.034 469.137 548.73 467.845C549.451 466.527 549.936 465.048 550.185 463.408L571.214 463.557C570.966 466.788 570.059 470.082 568.493 473.438C566.926 476.769 564.702 479.851 561.818 482.685C558.96 485.494 555.417 487.756 551.191 489.471C546.966 491.186 542.056 492.044 536.463 492.044C529.453 492.044 523.164 490.54 517.596 487.532C512.053 484.525 507.665 480.1 504.434 474.258C501.227 468.417 499.624 461.27 499.624 452.818C499.624 444.317 501.264 437.158 504.545 431.341C507.827 425.499 512.251 421.087 517.82 418.104C523.388 415.096 529.602 413.592 536.463 413.592C541.286 413.592 545.723 414.251 549.775 415.569C553.826 416.886 557.381 418.812 560.439 421.348C563.496 423.859 565.957 426.953 567.821 430.632C569.686 434.311 570.817 438.525 571.214 443.273ZM654.597 452.818C654.597 461.32 652.944 468.491 649.638 474.333C646.332 480.15 641.87 484.562 636.252 487.57C630.634 490.553 624.37 492.044 617.46 492.044C610.499 492.044 604.21 490.54 598.592 487.532C592.999 484.5 588.55 480.075 585.244 474.258C581.962 468.417 580.322 461.27 580.322 452.818C580.322 444.317 581.962 437.158 585.244 431.341C588.55 425.499 592.999 421.087 598.592 418.104C604.21 415.096 610.499 413.592 617.46 413.592C624.37 413.592 630.634 415.096 636.252 418.104C641.87 421.087 646.332 425.499 649.638 431.341C652.944 437.158 654.597 444.317 654.597 452.818ZM633.269 452.818C633.269 448.244 632.66 444.391 631.442 441.259C630.249 438.102 628.472 435.716 626.11 434.1C623.774 432.46 620.89 431.639 617.46 431.639C614.029 431.639 611.133 432.46 608.772 434.1C606.435 435.716 604.658 438.102 603.44 441.259C602.247 444.391 601.65 448.244 601.65 452.818C601.65 457.392 602.247 461.257 603.44 464.414C604.658 467.547 606.435 469.933 608.772 471.574C611.133 473.189 614.029 473.997 617.46 473.997C620.89 473.997 623.774 473.189 626.11 471.574C628.472 469.933 630.249 467.547 631.442 464.414C632.66 461.257 633.269 457.392 633.269 452.818ZM664.189 414.636H689.992L707.741 457.889H708.635L726.384 414.636H752.187V491H731.903V446.852H731.306L714.303 490.403H702.073L685.07 446.554H684.474V491H664.189V414.636ZM887.52 414.636H913.322L931.071 457.889H931.966L949.714 414.636H975.517V491H955.233V446.852H954.636L937.633 490.403H925.403L908.4 446.554H907.804V491H887.52V414.636ZM1005.18 491H982.806L1008.01 414.636H1036.35L1061.56 491H1039.18L1022.48 435.666H1021.88L1005.18 491ZM1001 460.872H1043.06V476.384H1001V460.872Z" fill="#5FD068"/>
</g>
<defs>
<filter id="filter0_f_682_18" x="824" y="71" width="171" height="171" filterUnits="userSpaceOnUse" color-interpolation-filters="sRGB">
<feFlood flood-opacity="0" result="BackgroundImageFix"/>
<feBlend mode="normal" in="SourceGraphic" in2="BackgroundImageFix" result="shape"/>
<feGaussianBlur stdDeviation="10" result="effect1_foregroundBlur_682_18"/>
</filter>
<filter id="filter1_f_682_18" x="902" y="525" width="477" height="477" filterUnits="userSpaceOnUse" color-interpolation-filters="sRGB">
<feFlood flood-opacity="0" result="BackgroundImageFix"/>
<feBlend mode="normal" in="SourceGraphic" in2="BackgroundImageFix" result="shape"/>
<feGaussianBlur stdDeviation="15" result="effect1_foregroundBlur_682_18"/>
</filter>
<filter id="filter2_f_682_18" x="-40" y="546" width="1648" height="436" filterUnits="userSpaceOnUse" color-interpolation-filters="sRGB">
<feFlood flood-opacity="0" result="BackgroundImageFix"/>
<feBlend mode="normal" in="SourceGraphic" in2="BackgroundImageFix" result="shape"/>
<feGaussianBlur stdDeviation="10" result="effect1_foregroundBlur_682_18"/>
</filter>
<filter id="filter3_f_682_18" x="97" y="404" width="279" height="279" filterUnits="userSpaceOnUse" color-interpolation-filters="sRGB">
<feFlood flood-opacity="0" result="BackgroundImageFix"/>
<feBlend mode="normal" in="SourceGraphic" in2="BackgroundImageFix" result="shape"/>
<feGaussianBlur stdDeviation="10" result="effect1_foregroundBlur_682_18"/>
</filter>
<linearGradient id="paint0_linear_682_18" x1="844" y1="91" x2="982.678" y2="232.797" gradientUnits="userSpaceOnUse">
<stop stop-color="#EFFFAD"/>
<stop offset="0.521" stop-color="#FFFBA4"/>
<stop offset="1" stop-color="#C7E489"/>
</linearGradient>
<linearGradient id="paint1_linear_682_18" x1="932" y1="555" x2="1373.44" y2="1006.37" gradientUnits="userSpaceOnUse">
<stop stop-color="#BCFFD5"/>
<stop offset="0.551" stop-color="#A9E3D5"/>
<stop offset="0.996" stop-color="#A0E1EF"/>
</linearGradient>
<linearGradient id="paint2_linear_682_18" x1="-20" y1="764" x2="1588" y2="764" gradientUnits="userSpaceOnUse">
<stop stop-color="#DCFFB4"/>
<stop offset="0.58" stop-color="#AAE4D6"/>
<stop offset="1" stop-color="#54ADB9"/>
</linearGradient>
<linearGradient id="paint3_linear_682_18" x1="117" y1="424" x2="370.007" y2="682.698" gradientUnits="userSpaceOnUse">
<stop stop-color="#E1FFAD"/>
<stop offset="0.436" stop-color="#D3FFA6"/>
<stop offset="0.911" stop-color="#74F971"/>
</linearGradient>
<clipPath id="clip0_682_18">
<rect width="1550" height="837" fill="white"/>
</clipPath>
</defs>
</svg>
